<svg xmlns="http://www.w3.org/2000/svg" viewBox="0 0 283.46 283.46"><defs><style>.cls-1{fill:#ffcd05;}</style></defs><title>logo</title><g id="Layer_2" data-name="Layer 2"><path class="cls-1" d="M204.61,222.66c-16.07-12.37-49.68-30.9-63.07-30L124.88,182.2c53.25-.57,64.72-18.31,142.63,62,.74-5-.3,1.1-.21-2.57C254,224.93,242,205.52,231.93,187.4c-7.21-12.93-18.33-36.3-54.91-37-28.55-.52-52.15,9.26-56.17-5.87-3.72-14,12.05-44.32,22.09-55.55,27.58-25.87,66.65,11.16,93.25-17.36,1.38-2.3,0-4.28-1.4-.66-27.65,21.56-65.1-15.17-93.74,3.77,14.51-11.69,37.61-15.92,45.94-35.5-3.52,6.66-12.65,7.21-12.45,13-1.4-.64-1.14-1.92-2.17-2.71-14.07,11.27-36.58,11.62-48.22,27C109.4,78.21,92.29,80.73,87.24,81l-1.58,6.52s2.85,6.19,25,12.89c-18.21,21.17-27.81,38.77-41.88,78.41C55,166.31,42.61,156.68,32.45,150.86c-8.37-4.8-17.93,5.17-16.66,10.29,4.46,18.38,37.19,61.69,44,82.67C63,237.5,38,187.4,38,187.4l-6.7-20c16.66,18.32,81.82,58,125.42,44.58"/></g></svg>